<svg id="logo" data-name="Logo" xmlns="http://www.w3.org/2000/svg" viewBox="0 0 515 153.59">
  <defs>
    <style>.cls-1{fill:#f1bd41;}</style>
  </defs>
  <path d="M29.71,33.8a3.91,3.91,0,0,0-1.58-3.36,21,21,0,0,0-5.78-2.53,46.68,46.68,0,0,1-6.57-2.58c-4.4-2.32-6.61-5.48-6.61-9.42a9,9,0,0,
    1,1.76-5.48A11.33,11.33,0,0,1,16,6.63a20,20,0,0,1,7.47-1.37,17.68,17.68,0,0,1,7.4,1.47,11.33,11.33,0,0,1,5,4.16A10.64,10.64,0,0,1,37.7
    ,17h-8a5,5,0,0,0-1.69-4,7,7,0,0,0-4.71-1.47,7.52,7.52,0,0,0-4.55,1.2A3.67,3.67,0,0,0,19,18.94a21.52,21.52,0,0,0,5.6,2.37c4.55,1.32,7.88,
    3,10,5a9.87,9.87,0,0,1,3.13,7.43,9.15,9.15,0,0,1-3.82,7.74c-2.54,1.85-6,2.78-10.26,2.78a20.15,20.15,0,0,1-8.15-1.58,
    12.87,12.87,0,0,1-5.61-4.42A11.21,11.21,0,0,1,8,31.79h8c0,4.21,2.55,6.27,7.68,6.27A7.87,7.87,0,0,0,28.13,37,3.65,3.65,0,0,0,29.71,33.8Z"
  />
  <path d="M74.45,36h-14l-2.65,7.8H49.27l14.44-38h7.4l14.56,38H77.14ZM62.61,29.65h9.73L67.49,15.43Z"/>
  <path d="M159.09,36h-14l-2.64,7.8h-8.57l14.45-38h7.4l14.55,38h-8.46Zm-11.9-6.31h9.67L152,15.43Z"/>
  <path d="M109.71,22.9l8.08-17.12h8.74L113.79,30V43.7h-8.15V30L92.9,5.78h8.78Z"/>
  <path d="M199.77,29.9h-6.34V43.81h-8.05v-38h14.45q6.91,0,10.63,3a10.3,10.3,0,0,1,3.76,8.49,11.46,11.46,0,0,1-1.75,6.48,11.14,11.14,0,0,
    1-5.19,4.11l8.42,15.54v.38h-8.57Zm-6.38-6.35h6.44a6.66,6.66,0,0,0,4.65-1.48,5.24,5.24,0,0,0,1.65-4.15,5.51,5.51,0,0,0-1.59-4.21,6.69,6.69,0,0,0-4.75-1.54h-6.4Z"/>
  <path d="M240,43.76h-8v-38h8Z"/>
  <path class="cls-1" d="M25.42,88.6H6.19V76H60.91V88.6H41.67v58.71H25.42Z"/>
  <path class="cls-1" d="M90.9,76h25.52c16.84,0,27.51,6.88,27.51,21.63v.4c0,10.77-6.28,16.45-14.65,18.94l18.84,30.3H131l-17-27.51h-7v27.51h-16ZM116,
    108.84c8.07,0,12.16-3.39,12.16-10.27v-.4c0-7.28-4.38-9.77-12.16-9.77H107v20.44Z"/>
  <path class="cls-1" d="M177.81,76h46.45V88.6h-30.4v16.65h24.32V117H193.86v17.74h32v12.56H177.81Z"/>
  <path class="cls-1" d="M257.05,76h16.14v58.61h29v12.66H257.05Z"/>
  <path class="cls-1" d="M332.79,76h16.15v58.61h29v12.66H332.79Z"/>
  <path class="cls-1" d="M408.94,76h16.25v71.27H408.94Z"/>
  <path class="cls-1" d="M456.38,125h15.45c.7,6.38,3.39,11.66,13.95,11.66,7.08,0,11.77-3.88,11.77-9.46s-3-7.68-13.46-9.27c-18.24-2.4-25.72-7.88-25.72-21.63,
    0-12.16,10.17-21.23,25.92-21.23,16,0,25.42,7.17,26.71,21.33H496.15c-1-6.48-4.78-9.47-11.86-9.47S473.62,90.2,473.62,95c0,5.08,2.3,7.48,13.26,9.07,17.24,
    2.19,26.12,6.88,26.12,21.63,0,12.66-10.37,22.73-27.22,22.73C466.25,148.41,457.28,139.24,456.38,125Z"
  />
</svg>